<?xml version="1.0" standalone="no"?>
<!DOCTYPE svg PUBLIC "-//W3C//DTD SVG 20010904//EN"
 "http://www.w3.org/TR/2001/REC-SVG-20010904/DTD/svg10.dtd">
<svg version="1.0" xmlns="http://www.w3.org/2000/svg"
 width="64.000000pt" height="64.000000pt" viewBox="0 0 64.000000 64.000000"
 preserveAspectRatio="xMidYMid meet">
<metadata>
Created by potrace 1.15, written by Peter Selinger 2001-2017
</metadata>
<g transform="translate(0.000000,64.000000) scale(0.100000,-0.100000)"
fill="#000000" stroke="none">
<path d="M290 552 c0 -21 -8 -32 -35 -46 -19 -11 -42 -30 -50 -42 -9 -13 -25
-24 -36 -24 -63 0 -93 -107 -44 -155 13 -14 31 -25 40 -25 8 0 15 -6 15 -14 0
-19 -27 -46 -46 -46 -9 0 -14 -11 -14 -30 l0 -30 60 0 c53 0 60 -2 60 -19 0
-30 47 -61 92 -61 41 0 88 34 88 65 0 12 13 15 60 15 l60 0 0 30 c0 19 -5 30
-14 30 -36 0 -46 29 -46 127 0 110 -15 147 -75 179 -27 14 -35 25 -35 46 0 26
-3 28 -40 28 -37 0 -40 -2 -40 -28z m118 -89 c39 -33 51 -76 52 -185 l0 -78
-130 0 -130 0 0 30 c0 28 2 30 40 30 l40 0 0 64 c0 54 -4 69 -25 94 l-25 30
27 21 c42 31 110 28 151 -6z"/>
</g>
</svg>
